<?xml version="1.0" encoding="UTF-8"?><svg xmlns="http://www.w3.org/2000/svg" xmlns:xlink="http://www.w3.org/1999/xlink" viewBox="0 0 716.97 184.41"><defs><style>.cls-1{fill:#ba3a13;}.cls-2{fill:#fff;}.cls-3{fill:#758c32;}.cls-4{isolation:isolate;}.cls-5{fill:url(#linear-gradient);mix-blend-mode:multiply;opacity:.32;}.cls-6{fill:#8b5e3c;}.cls-7{fill:#808285;}.cls-8{fill:#ff6c22;}.cls-9{fill:#39384a;}.cls-10{fill:#231f20;}.cls-11{fill:#414042;}</style><linearGradient id="linear-gradient" x1="172.63" y1="39.89" x2="172.63" y2="37.03" gradientUnits="userSpaceOnUse"><stop offset="0" stop-color="#000" stop-opacity="0"/><stop offset="1" stop-color="#231f20"/></linearGradient></defs><g class="cls-4"><g id="Layer_1"><g><polygon class="cls-9" points="142.53 36.93 147.39 39.77 199.41 39.77 203.54 36.93 142.53 36.93"/><polygon class="cls-10" points="172.06 29.88 124.44 129.66 135.05 130.72 211.13 131.78 220.71 127.31 172.06 29.88"/><path class="cls-11" d="M140.72,123.39l-3.19,1.14,2.07-3.79s.97,.62,1.12,2.65Z"/><rect class="cls-7" x="106.35" y="127.31" width="133.48" height="6.83"/><polygon class="cls-8" points="154.67 24.93 106.35 127.31 136.4 127.31 143.75 111.7 171.74 45.3 173.61 24.93 154.67 24.93"/><polygon class="cls-8" points="190.49 24.93 239.83 127.31 209.79 127.31 185.7 83.13 173.61 44.54 172.57 24.93 190.49 24.93"/><path class="cls-1" d="M206.99,122.18s2.59-5.52,10.86-6.74c8.27-1.23-9.58-.69-9.58-.69l-3.19,3.66,1.92,3.78Z"/><path class="cls-11" d="M205.08,123.39l3.19,1.14-2.07-3.79s-.97,.62-1.12,2.66Z"/><path class="cls-7" d="M173.1,33.96s13.74,68.26,50.06,81.94c0,0-14.81-3.2-18.09,7.5,0,0-31.98-37.68-31.98-89.43Z"/><path class="cls-1" d="M138.81,122.19s-2.59-5.51-10.84-6.74c-8.26-1.22,9.57-.69,9.57-.69l3.19,3.66-1.91,3.77Z"/><path class="cls-7" d="M172.7,33.96s-13.74,68.26-50.06,81.94c0,0,14.81-3.2,18.09,7.5,0,0,31.98-37.68,31.98-89.43Z"/><g><path class="cls-3" d="M61.06,129.66c-32.01,0-56.16-23.78-56.16-55.31S29.05,19.04,61.06,19.04c17.88,0,31.97,6.03,44.34,18.98l.69,.73-18.57,17.65-.69-.67c-7.43-7.25-16.34-11.09-25.78-11.09-17,0-28.87,12.22-28.87,29.72s11.87,29.72,28.87,29.72c9.43,0,18.35-3.83,25.78-11.09l.7-.68,18.04,17.67-.68,.71c-11.99,12.59-26.74,18.98-43.83,18.98Z"/><path class="cls-2" d="M61.06,20.04c19.35,0,32.75,7.3,43.62,18.67l-17.14,16.29c-7.13-6.96-16.29-11.37-26.47-11.37-18.16,0-29.87,13.58-29.87,30.72s11.71,30.72,29.87,30.72c10.18,0,19.35-4.41,26.47-11.37l16.63,16.29c-10.18,10.69-24.27,18.67-43.11,18.67-32.24,0-55.16-23.93-55.16-54.31S28.82,20.04,61.06,20.04m0-2C28.48,18.04,3.9,42.25,3.9,74.35s24.57,56.31,57.16,56.31c17.37,0,32.37-6.49,44.55-19.29l1.36-1.43-1.41-1.38-16.63-16.29-1.4-1.37-1.4,1.37c-7.24,7.07-15.91,10.8-25.08,10.8-16.41,0-27.87-11.81-27.87-28.72s11.46-28.72,27.87-28.72c9.17,0,17.84,3.74,25.08,10.8l1.38,1.35,1.4-1.33,17.14-16.29,1.45-1.38-1.38-1.45c-12.57-13.16-26.89-19.29-45.06-19.29h0Z"/></g><g><polygon class="cls-3" points="293.94 129.66 273.35 84.24 273.35 126.26 246.4 126.26 246.4 22.44 271.29 22.44 296.62 76.09 322.12 22.44 346.66 22.44 346.66 126.26 319.89 126.26 319.89 84.55 299.3 129.66 293.94 129.66"/><path class="cls-2" d="M345.66,23.44V125.26h-24.78v-45.31l-22.23,48.71h-4.07l-22.23-49.05v45.65h-24.95V23.44h23.25l25.96,54.99,26.13-54.99h22.91m2-2h-26.17l-.54,1.14-24.32,51.17-24.16-51.17-.54-1.15h-26.52V127.26h28.95v-38.4l18.41,40.61,.53,1.17h6.65l.53-1.17,18.41-40.34v38.11h28.78V21.44h0Z"/></g><ellipse class="cls-10" cx="265.46" cy="128.38" rx=".99" ry="1.02" transform="translate(94.43 368.59) rotate(-80.36)"/><path class="cls-10" d="M265.98,128.11l-.9,4.16c-.03,.14-.52,.12-.5-.02l.43-4.47,.97,.34Z"/><ellipse class="cls-10" cx="264.26" cy="132.38" rx="5.63" ry=".32"/><ellipse class="cls-10" cx="80.81" cy="128.4" rx="1.02" ry=".99" transform="translate(-20.36 15.35) rotate(-9.64)"/><path class="cls-10" d="M80.29,128.13l.9,4.16c.03,.14,.52,.12,.5-.02l-.43-4.47-.97,.34Z"/><path class="cls-10" d="M87.64,132.4c0,.18-2.52,.32-5.63,.32-3.11,0-5.63-.14-5.63-.32s2.52-.32,5.63-.32,5.63,.14,5.63,.32Z"/><g><path class="cls-3" d="M360.96,126.26V22.44h43.6c22.38,0,34.09,16.9,34.09,33.58,0,19.46-14.34,33.58-34.09,33.58h-16.82v36.66h-26.78Zm41.22-60.04c5.92,0,9.01-5.47,9.01-10.88,0-4.82-2.79-9.69-9.01-9.69h-14.44v20.57h14.44Z"/><path class="cls-2" d="M404.56,23.44c20.87,0,33.09,15.44,33.09,32.58,0,19.01-14.26,32.58-33.09,32.58h-17.82v36.66h-24.78V23.44h42.6m-17.82,43.78h15.44c6.45,0,10.01-5.94,10.01-11.88,0-5.6-3.39-10.69-10.01-10.69h-15.44v22.57m17.82-45.78h-44.6V127.26h28.78v-36.66h15.82c9.69,0,18.57-3.46,25.01-9.73,6.5-6.34,10.09-15.17,10.09-24.85,0-17.19-12.05-34.58-35.09-34.58h0Zm-15.82,25.21h13.44c5.91,0,8.01,4.68,8.01,8.69,0,4.91-2.75,9.88-8.01,9.88h-13.44v-18.57h0Z"/></g><g><rect class="cls-3" x="452.61" y="22.44" width="26.95" height="103.82"/><path class="cls-2" d="M478.55,23.44V125.26h-24.95V23.44h24.95m2-2h-28.95V127.26h28.95V21.44h0Z"/></g><g><polygon class="cls-3" points="558.97 126.26 520.79 68.03 520.79 126.26 493.85 126.26 493.85 22.44 521.69 22.44 559.69 80.5 559.69 22.44 586.47 22.44 586.47 126.26 558.97 126.26"/><path class="cls-2" d="M585.47,23.44V125.26h-25.97l-39.71-60.59v60.59h-24.95V23.44h26.3l39.54,60.42V23.44h24.78m2-2h-28.78v55.71l-35.87-54.8-.59-.9h-29.39V127.26h28.95v-55.89l36.04,54.98,.59,.9h29.05V21.44h0Z"/></g><g><path class="cls-3" d="M656.41,129.66c-32.01,0-56.16-23.78-56.16-55.31s24.14-55.31,56.16-55.31c17.38,0,31.14,5.76,43.31,18.12l.72,.74-18.74,17.27-.68-.61c-7.2-6.49-15.71-9.92-24.62-9.92-17,0-28.87,12.22-28.87,29.72s12.08,29.72,29.38,29.72,24.86-8.71,26.05-17.69h-28.91v-23.55h58v10.67c0,15.89-4.74,29.56-13.71,39.51-9.81,10.89-24.31,16.64-41.94,16.64Z"/><path class="cls-2" d="M656.41,20.04c18.84,0,31.91,6.96,42.6,17.82l-17.31,15.95c-6.96-6.28-15.61-10.18-25.29-10.18-18.16,0-29.87,13.58-29.87,30.72,0,18.84,13.41,30.72,30.38,30.72,17.82,0,26.47-9.84,27.15-19.69h-29.02v-21.55h56v9.67c0,30.04-17.65,55.16-54.65,55.16-32.24,0-55.16-23.93-55.16-54.31s22.91-54.31,55.16-54.31m0-2c-32.58,0-57.16,24.21-57.16,56.31s24.57,56.31,57.16,56.31c17.92,0,32.68-5.87,42.68-16.97,9.14-10.14,13.96-24.04,13.96-40.18v-11.67h-60v25.55h28.73c-1.66,8.12-9.67,15.69-24.87,15.69-16.71,0-28.38-11.81-28.38-28.72s11.46-28.72,27.87-28.72c8.66,0,16.94,3.34,23.95,9.67l1.35,1.22,1.34-1.24,17.31-15.95,1.52-1.4-1.45-1.47c-12.37-12.56-26.36-18.42-44.02-18.42h0Z"/></g><polygon class="cls-10" points="81.49 131.33 80.75 130.61 153.93 25.52 154.67 26.24 81.49 131.33"/><polygon class="cls-10" points="264.41 131.33 265.15 130.61 191.97 25.52 191.23 26.24 264.41 131.33"/><g><g><path class="cls-2" d="M414.59,181.38c-.73,0-1.32-.58-1.58-1.16-.26-.58-.2-1.17,.16-1.58l39.8-44.67h26.15l.3,.51c.24,.42,.14,.98-.01,1.24l-24.9,44.33c-.46,.84-1.27,1.32-2.21,1.32h-37.72Z"/><path class="cls-2" d="M478.55,134.98s.02,.22,0,.26l-24.91,44.33c-.29,.52-.77,.81-1.34,.81h-37.72c-.43,0-.92-.78-.66-1.07l39.51-44.33h25.13m0-2h-26.02l-.6,.67-39.51,44.33c-.62,.7-.75,1.72-.33,2.65,.48,1.06,1.45,1.75,2.49,1.75h37.72c1.3,0,2.45-.69,3.09-1.84l24.9-44.32c.31-.55,.44-1.48,0-2.24l-.58-.99h-1.16Z"/></g><g><path class="cls-2" d="M583.49,181.38l-62.85-31.31,.05,28.63c0,.8-.29,1.56-.79,2.06-.39,.39-.9,.61-1.42,.61h-36.73c-.7,0-1.38-.39-1.87-1.06-.6-.84-.8-1.96-.49-2.87l14.56-43.47h27.23l49.51,20.74-11.85-20.74h26.9l39.04,43.97c.42,.48,.48,1.19,.16,1.91-.34,.76-1.09,1.52-2,1.52h-39.44Z"/><path class="cls-2" d="M585.29,134.98l38.74,43.63c.42,.47-.39,1.77-1.1,1.77h-39.2l-64.09-31.92,.05,30.25c0,.93-.54,1.67-1.21,1.67h-36.73c-.97,0-1.78-1.49-1.41-2.61l14.33-42.79h26.3l52.04,21.8-12.45-21.8h24.73m.9-2h-29.07l1.71,2.99,9.53,16.69-46.61-19.53-.37-.16h-28.15l-.46,1.37-14.33,42.79c-.41,1.22-.17,2.66,.63,3.77,.67,.94,1.65,1.47,2.68,1.47h36.73c.79,0,1.55-.32,2.13-.91,.69-.69,1.09-1.7,1.08-2.77l-.05-27.01,61.2,30.48,.42,.21h39.67c1.36,0,2.44-1.06,2.92-2.11,.49-1.09,.37-2.2-.32-2.98l-38.74-43.63-.6-.67h0Z"/></g></g><g><path class="cls-6" d="M453.43,134.98h25.37s.08,.04,.06,.08l-25.22,44.51c-.29,.52-.77,.81-1.34,.81h-37.72c-.43,0-.92-.78-.66-1.07l39.51-44.33Z"/><path class="cls-6" d="M494.66,134.98h25.13l52.65,21.57-11.89-21.57h24.73l38.74,43.63c.42,.47-.39,1.77-1.1,1.77h-39.2l-64.09-31.92,.05,30.25c0,.93-.54,1.67-1.21,1.67h-36.73c-.97,0-1.78-1.49-1.41-2.61l14.33-42.79Z"/></g><polygon class="cls-10" points="202.65 37.61 143.88 37.61 142.53 36.93 203.54 36.93 202.65 37.61"/><path class="cls-7" d="M161.01,10.33l-18.46,26.61h60.99l-18.46-26.61c-2.74-3.94-7.23-6.3-12.03-6.3h0c-4.8,0-9.3,2.35-12.03,6.3Z"/><polygon class="cls-5" points="148.97 37.01 146.91 41.37 198.35 41.37 196.31 37.01 148.97 37.01"/></g></g></g></svg>